<svg xmlns="http://www.w3.org/2000/svg" width="642.25" height="445.484" viewBox="0 0 642.25 445.484">
  <g id="Grupo_49" data-name="Grupo 49" transform="translate(151 -999.516)">
    <rect id="Rectángulo_21" data-name="Rectángulo 21" width="356" height="110" transform="translate(-33 1335)" fill="#1bd665"/>
    <rect id="Rectángulo_22" data-name="Rectángulo 22" width="366" height="112" transform="translate(-151 1223)" fill="#1d5be6"/>
    <path id="Trazado_13" data-name="Trazado 13" d="M268.669,112.386h0a55.758,55.758,0,1,1,55.758-55.758,55.758,55.758,0,0,1-55.758,55.758" transform="translate(166.073 1222.918)" fill="#fff"/>
    <path id="Trazado_12" data-name="Trazado 12" d="M108.986,112.151h0a55.758,55.758,0,1,1,55.758-55.758,55.758,55.758,0,0,1-55.758,55.758" transform="translate(325.211 1000.438)" fill="#1bd665"/>
    <path id="Trazado_19" data-name="Trazado 19" d="M26.7.635c-.054,0-.109,0-.163,0V56.885l.327-.985-.327.985v55.261c.054,0,.109,0,.163,0A55.758,55.758,0,0,0,26.7.635" transform="translate(183.982 1222.66)" fill="#1d5be6"/>
    <rect id="Rectángulo_3" data-name="Rectángulo 3" width="0.001" height="1.038" transform="translate(210.681 1278.533)" fill="#f29100"/>
    <path id="Trazado_20" data-name="Trazado 20" d="M55.594.637a55.754,55.754,0,0,0,0,111.507V.637Z" transform="translate(154.924 1222.662)" fill="#fff"/>
    <path id="Trazado_15" data-name="Trazado 15" d="M53.228,279.037V56.008a55.758,55.758,0,0,1,111.516,0V279.037a55.758,55.758,0,1,1-111.516,0Z" transform="translate(325.211 1000.016)" fill="none" stroke="#fff" stroke-miterlimit="10" stroke-width="1.5"/>
    <path id="Trazado_16" data-name="Trazado 16" d="M385.243,112.151H162.212a55.758,55.758,0,0,1,0-111.516H385.243a55.758,55.758,0,1,1,0,111.516Z" transform="translate(49.499 1222.661)" fill="none" stroke="#fff" stroke-miterlimit="10" stroke-width="1.5"/>
    <path id="Trazado_17" data-name="Trazado 17" d="M215.4,163.764h0a54.951,54.951,0,1,1,54.951-54.951A54.951,54.951,0,0,1,215.4,163.764" transform="translate(108.629 1280.948)" fill="#1d5be6"/>
  </g>
</svg>
