<?xml version="1.0" encoding="utf-8"?>
<!-- Generator: Adobe Illustrator 26.0.1, SVG Export Plug-In . SVG Version: 6.00 Build 0)  -->
<svg version="1.1" id="Capa_1" xmlns="http://www.w3.org/2000/svg" xmlns:xlink="http://www.w3.org/1999/xlink" x="0px" y="0px"
	 viewBox="0 0 65.8 65.8" style="enable-background:new 0 0 65.8 65.8;" xml:space="preserve">
<style type="text/css">
	.st0{fill:#1BD665;}
	.st1{fill:#0E0916;}
	.st2{fill:#FFFFFF;}
</style>
<g id="Grupo_48" transform="translate(-1097.927 -1793.945)">
	<g id="Grupo_32" transform="translate(-7.073 -4.055)">
		<g id="Grupo_35">
			<g id="Grupo_34" transform="translate(12.245 -4.855)">
				<path id="Trazado_61" class="st0" d="M1125.7,1804.7L1125.7,1804.7l-0.1,31.3l0.2-0.5l-0.2,0.5v30.8h0.1
					c17.2,0,31.1-13.9,31.1-31.1C1156.8,1818.6,1142.9,1804.7,1125.7,1804.7"/>
				<path id="Trazado_62" class="st1" d="M1125.6,1804.7c-17.2,0-31.1,13.9-31.1,31.1c0,17.2,13.9,31.1,31.1,31.1V1804.7z"/>
			</g>
			<path id="Trazado_60" class="st2" d="M1137.7,1840.5L1137.7,1840.5c-5.4,0-9.9-4.4-9.9-9.9s4.4-9.9,9.9-9.9s9.9,4.4,9.9,9.9
				S1143.2,1840.5,1137.7,1840.5C1137.7,1840.5,1137.7,1840.5,1137.7,1840.5"/>
		</g>
	</g>
</g>
</svg>
