<?xml version="1.0" encoding="utf-8"?>
<!-- Generator: Adobe Illustrator 26.0.1, SVG Export Plug-In . SVG Version: 6.00 Build 0)  -->
<svg version="1.1" id="Capa_1" xmlns="http://www.w3.org/2000/svg" xmlns:xlink="http://www.w3.org/1999/xlink" x="0px" y="0px"
	 viewBox="0 0 65.8 65.8" style="enable-background:new 0 0 65.8 65.8;" xml:space="preserve">
<style type="text/css">
	.st0{fill:#FFFFFF;}
	.st1{fill:#1BD665;}
	.st2{fill:#0E0916;}
</style>
<g id="Grupo_46" transform="translate(-693.181 -1797.547)">
	<path id="Trazado_55" class="st0" d="M709.6,1822.8L709.6,1822.8c-5.7,0-10.3-4.6-10.3-10.3c0-5.7,4.6-10.3,10.3-10.3
		c5.7,0,10.3,4.6,10.3,10.3C719.9,1818.2,715.3,1822.8,709.6,1822.8L709.6,1822.8"/>
	<path id="Trazado_57" class="st1" d="M709.6,1858.8L709.6,1858.8c-5.7,0-10.3-4.6-10.3-10.3c0-5.7,4.6-10.3,10.3-10.3
		c5.7,0,10.3,4.6,10.3,10.3C719.9,1854.2,715.3,1858.8,709.6,1858.8L709.6,1858.8"/>
	<path id="Trazado_58" class="st0" d="M742.6,1858.8L742.6,1858.8c-5.7,0-10.3-4.6-10.3-10.3c0-5.7,4.6-10.3,10.3-10.3
		s10.3,4.6,10.3,10.3C752.9,1854.2,748.3,1858.8,742.6,1858.8L742.6,1858.8"/>
	<path id="Trazado_56" class="st2" d="M742.6,1822.8L742.6,1822.8c-5.7,0-10.3-4.6-10.3-10.3c0-5.7,4.6-10.3,10.3-10.3
		s10.3,4.6,10.3,10.3C752.9,1818.2,748.3,1822.8,742.6,1822.8L742.6,1822.8"/>
</g>
</svg>
